# xmcd
#
# Track frame offsets:
#	150
#	23654
#	56262
#	87491
#	111906
#
# Disc length: 1744 seconds
#
# Revision: 0
# Processed by: cddbd v1.5.1PL2 Copyright (c) Steve Scherf et al.
# Submitted via: dBpowerAMP V4.0
#
DISCID=3506ce05
DTITLE=Vincent Hayes Project - 2.09
DYEAR=2005
DGENRE=Blues
TTITLE0=Watch Out
TTITLE1=Ooh Baby
TTITLE2=I've Got News For You
TTITLE3=Rollin' Man
TTITLE4=I Loved Another Woman
EXTD=
EXTT0=
EXTT1=
EXTT2=
EXTT3=
EXTT4=
PLAYORDER=
